{
  "accessors": [
    {
      "bufferView": 0,
      "componentType": 5126,
      "count": 1407,
      "type": "VEC3",
      "max": [
        3.7555301189422607,
        7.7462935447692871,
        3.3553462028503418
      ],
      "min": [
        -3.9065148830413818,
        -0.25082486867904663,
        -3.1534531116485596
      ]
    },
    {
      "bufferView": 1,
      "componentType": 5126,
      "count": 1407,
      "type": "VEC3",
      "max": [
        0.99855607748031616,
        0.99026370048522949,
        0.99997007846832275
      ],
      "min": [
        -0.99970144033432007,
        -0.99961614608764648,
        -0.999991774559021
      ]
    },
    {
      "bufferView": 2,
      "componentType": 5126,
      "count": 1407,
      "type": "VEC4",
      "max": [
        0.99967753887176514,
        0.99985766410827637,
        0.99894112348556519,
        -1.0
      ],
      "min": [
        -0.999444305896759,
        -0.99974840879440308,
        -0.99918431043624878,
        -1.0
      ]
    },
    {
      "bufferView": 3,
      "componentType": 5126,
      "count": 1407,
      "type": "VEC2",
      "max": [
        0.79696279764175415,
        0.91422033309936523
      ],
      "min": [
        0.36236578226089478,
        0.83991771936416626
      ]
    },
    {
      "bufferView": 4,
      "componentType": 5126,
      "count": 1407,
      "type": "VEC2",
      "max": [
        0.99751132726669312,
        0.99364751577377319
      ],
      "min": [
        0.00390625,
        0.00390625
      ]
    },
    {
      "bufferView": 5,
      "componentType": 5125,
      "count": 2178,
      "type": "SCALAR",
      "max": [
        1406.0
      ],
      "min": [
        0.0
      ]
    },
    {
      "bufferView": 6,
      "componentType": 5126,
      "count": 1791,
      "type": "VEC3",
      "max": [
        5.974156379699707,
        7.986361026763916,
        3.9776017665863037
      ],
      "min": [
        -5.3622288703918457,
        -0.59292685985565186,
        -4.8650727272033691
      ]
    },
    {
      "bufferView": 7,
      "componentType": 5126,
      "count": 1791,
      "type": "VEC3",
      "max": [
        0.9997522234916687,
        0.99225372076034546,
        0.99976104497909546
      ],
      "min": [
        -0.99496811628341675,
        -0.99995768070220947,
        -0.99960440397262573
      ]
    },
    {
      "bufferView": 8,
      "componentType": 5126,
      "count": 1791,
      "type": "VEC4",
      "max": [
        0.99312180280685425,
        0.766613245010376,
        0.99851936101913452,
        -1.0
      ],
      "min": [
        -0.99966704845428467,
        -0.84843343496322632,
        -0.99973255395889282,
        -1.0
      ]
    },
    {
      "bufferView": 9,
      "componentType": 5126,
      "count": 1791,
      "type": "VEC2",
      "max": [
        0.79522734880447388,
        0.91157388687133789
      ],
      "min": [
        0.36326521635055542,
        0.83561986684799194
      ]
    },
    {
      "bufferView": 10,
      "componentType": 5126,
      "count": 1791,
      "type": "VEC2",
      "max": [
        0.99741280078887939,
        0.99278718233108521
      ],
      "min": [
        0.00390625,
        0.00390625
      ]
    },
    {
      "bufferView": 11,
      "componentType": 5125,
      "count": 2580,
      "type": "SCALAR",
      "max": [
        1790.0
      ],
      "min": [
        0.0
      ]
    },
    {
      "bufferView": 12,
      "componentType": 5126,
      "count": 1891,
      "type": "VEC3",
      "max": [
        9.0514936447143555,
        6.3670053482055664,
        5.3566641807556152
      ],
      "min": [
        -8.3862323760986328,
        -0.43097203969955444,
        -5.2408981323242188
      ]
    },
    {
      "bufferView": 13,
      "componentType": 5126,
      "count": 1891,
      "type": "VEC3",
      "max": [
        0.99927777051925659,
        0.99934941530227661,
        0.99987936019897461
      ],
      "min": [
        -0.9977649450302124,
        -0.99998283386230469,
        -0.9988824725151062
      ]
    },
    {
      "bufferView": 14,
      "componentType": 5126,
      "count": 1891,
      "type": "VEC4",
      "max": [
        0.99963068962097168,
        0.99933147430419922,
        0.99882966279983521,
        -1.0
      ],
      "min": [
        -0.99942696094512939,
        -0.99993157386779785,
        -0.99998259544372559,
        -1.0
      ]
    },
    {
      "bufferView": 15,
      "componentType": 5126,
      "count": 1891,
      "type": "VEC2",
      "max": [
        0.79932469129562378,
        0.91027504205703735
      ],
      "min": [
        0.36020201444625854,
        0.84024035930633545
      ]
    },
    {
      "bufferView": 16,
      "componentType": 5126,
      "count": 1891,
      "type": "VEC2",
      "max": [
        0.99805998802185059,
        0.99790412187576294
      ],
      "min": [
        0.00390625,
        0.00390625
      ]
    },
    {
      "bufferView": 17,
      "componentType": 5125,
      "count": 2808,
      "type": "SCALAR",
      "max": [
        1890.0
      ],
      "min": [
        0.0
      ]
    },
    {
      "bufferView": 18,
      "componentType": 5126,
      "count": 1569,
      "type": "VEC3",
      "max": [
        5.1577739715576172,
        8.29499340057373,
        5.2356185913085938
      ],
      "min": [
        -5.6311917304992676,
        -0.29955673217773438,
        -4.3698258399963379
      ]
    },
    {
      "bufferView": 19,
      "componentType": 5126,
      "count": 1569,
      "type": "VEC3",
      "max": [
        0.99915659427642822,
        0.99972647428512573,
        0.99977356195449829
      ],
      "min": [
        -0.99879080057144165,
        -0.99995946884155273,
        -0.9998633861541748
      ]
    },
    {
      "bufferView": 20,
      "componentType": 5126,
      "count": 1569,
      "type": "VEC4",
      "max": [
        0.99903655052185059,
        0.99999785423278809,
        0.99742531776428223,
        -1.0
      ],
      "min": [
        -0.9839518666267395,
        -0.99998223781585693,
        -0.99923956394195557,
        -1.0
      ]
    },
    {
      "bufferView": 21,
      "componentType": 5126,
      "count": 1569,
      "type": "VEC2",
      "max": [
        0.7942395806312561,
        0.90835946798324585
      ],
      "min": [
        0.36089235544204712,
        0.83684790134429932
      ]
    },
    {
      "bufferView": 22,
      "componentType": 5126,
      "count": 1569,
      "type": "VEC2",
      "max": [
        0.997776448726654,
        0.99195957183837891
      ],
      "min": [
        0.00390625,
        0.00390625
      ]
    },
    {
      "bufferView": 23,
      "componentType": 5125,
      "count": 2316,
      "type": "SCALAR",
      "max": [
        1568.0
      ],
      "min": [
        0.0
      ]
    },
    {
      "bufferView": 24,
      "componentType": 5126,
      "count": 1404,
      "type": "VEC3",
      "max": [
        4.280238151550293,
        9.7725658416748047,
        4.1384902000427246
      ],
      "min": [
        -4.0270466804504395,
        -0.32670849561691284,
        -2.7243208885192871
      ]
    },
    {
      "bufferView": 25,
      "componentType": 5126,
      "count": 1404,
      "type": "VEC3",
      "max": [
        0.99989354610443115,
        0.99753427505493164,
        0.9910082221031189
      ],
      "min": [
        -0.99948525428771973,
        -0.99998724460601807,
        -0.99982422590255737
      ]
    },
    {
      "bufferView": 26,
      "componentType": 5126,
      "count": 1404,
      "type": "VEC4",
      "max": [
        0.98915159702301025,
        0.99854624271392822,
        0.99982929229736328,
        1.0
      ],
      "min": [
        -0.99969673156738281,
        -0.9999769926071167,
        -0.99991095066070557,
        -1.0
      ]
    },
    {
      "bufferView": 27,
      "componentType": 5126,
      "count": 1404,
      "type": "VEC2",
      "max": [
        0.79793351888656616,
        0.91417807340621948
      ],
      "min": [
        0.36176955699920654,
        0.83902359008789063
      ]
    },
    {
      "bufferView": 28,
      "componentType": 5126,
      "count": 1404,
      "type": "VEC2",
      "max": [
        0.99612390995025635,
        0.98450952768325806
      ],
      "min": [
        0.00390625,
        0.00390625
      ]
    },
    {
      "bufferView": 29,
      "componentType": 5125,
      "count": 2088,
      "type": "SCALAR",
      "max": [
        1403.0
      ],
      "min": [
        0.0
      ]
    },
    {
      "bufferView": 30,
      "componentType": 5126,
      "count": 828,
      "type": "VEC3",
      "max": [
        1.2131601572036743,
        2.9307594299316406,
        1.3992184400558472
      ],
      "min": [
        -1.10405695438385,
        -0.1168123185634613,
        -0.88471508026123047
      ]
    },
    {
      "bufferView": 31,
      "componentType": 5126,
      "count": 828,
      "type": "VEC3",
      "max": [
        0.99208670854568481,
        0.999030351638794,
        0.998181939125061
      ],
      "min": [
        -0.9976770281791687,
        -0.99843770265579224,
        -0.99550652503967285
      ]
    },
    {
      "bufferView": 32,
      "componentType": 5126,
      "count": 828,
      "type": "VEC4",
      "max": [
        0.99926859140396118,
        0.93462061882019043,
        0.96952652931213379,
        -1.0
      ],
      "min": [
        -0.99861466884613037,
        -0.99987053871154785,
        -0.98133283853530884,
        -1.0
      ]
    },
    {
      "bufferView": 33,
      "componentType": 5126,
      "count": 828,
      "type": "VEC2",
      "max": [
        0.79517561197280884,
        0.9073406457901001
      ],
      "min": [
        0.36052918434143066,
        0.83756935596466064
      ]
    },
    {
      "bufferView": 34,
      "componentType": 5126,
      "count": 828,
      "type": "VEC2",
      "max": [
        0.98167157173156738,
        0.99221628904342651
      ],
      "min": [
        0.00390625,
        0.00390625
      ]
    },
    {
      "bufferView": 35,
      "componentType": 5125,
      "count": 1230,
      "type": "SCALAR",
      "max": [
        827.0
      ],
      "min": [
        0.0
      ]
    },
    {
      "bufferView": 36,
      "componentType": 5126,
      "count": 3444,
      "type": "VEC3",
      "max": [
        27.530052185058594,
        49.826473236083984,
        31.32673454284668
      ],
      "min": [
        -29.350820541381836,
        -0.20331764221191406,
        -31.420551300048828
      ]
    },
    {
      "bufferView": 37,
      "componentType": 5126,
      "count": 3444,
      "type": "VEC3",
      "max": [
        0.98395371437072754,
        0.99484336376190186,
        0.97109895944595337
      ],
      "min": [
        -0.99856442213058472,
        -0.40901336073875427,
        -0.944034993648529
      ]
    },
    {
      "bufferView": 38,
      "componentType": 5126,
      "count": 3444,
      "type": "VEC4",
      "max": [
        1.0,
        0.98709726333618164,
        0.69110167026519775,
        1.0
      ],
      "min": [
        -0.86722725629806519,
        -0.97050708532333374,
        -0.99999713897705078,
        -1.0
      ]
    },
    {
      "bufferView": 39,
      "componentType": 5126,
      "count": 3444,
      "type": "VEC2",
      "max": [
        0.7934110164642334,
        0.9059259295463562
      ],
      "min": [
        0.36932316422462463,
        0.83640629053115845
      ]
    },
    {
      "bufferView": 40,
      "componentType": 5126,
      "count": 3444,
      "type": "VEC2",
      "max": [
        0.98582708835601807,
        0.80747842788696289
      ],
      "min": [
        0.00390625,
        0.00390625
      ]
    },
    {
      "bufferView": 41,
      "componentType": 5125,
      "count": 5010,
      "type": "SCALAR",
      "max": [
        3443.0
      ],
      "min": [
        0.0
      ]
    }
  ],
  "asset": {
    "generator": "Plattar UnityGLTF (2020.3.19f1)",
    "version": "2.0"
  },
  "buffers": [
    {
      "uri": "rocks.bin",
      "byteLength": 763544
    }
  ],
  "bufferViews": [
    {
      "buffer": 0,
      "byteLength": 16884
    },
    {
      "buffer": 0,
      "byteOffset": 16884,
      "byteLength": 16884
    },
    {
      "buffer": 0,
      "byteOffset": 33768,
      "byteLength": 22512
    },
    {
      "buffer": 0,
      "byteOffset": 56280,
      "byteLength": 11256
    },
    {
      "buffer": 0,
      "byteOffset": 67536,
      "byteLength": 11256
    },
    {
      "buffer": 0,
      "byteOffset": 78792,
      "byteLength": 8712
    },
    {
      "buffer": 0,
      "byteOffset": 87504,
      "byteLength": 21492
    },
    {
      "buffer": 0,
      "byteOffset": 108996,
      "byteLength": 21492
    },
    {
      "buffer": 0,
      "byteOffset": 130488,
      "byteLength": 28656
    },
    {
      "buffer": 0,
      "byteOffset": 159144,
      "byteLength": 14328
    },
    {
      "buffer": 0,
      "byteOffset": 173472,
      "byteLength": 14328
    },
    {
      "buffer": 0,
      "byteOffset": 187800,
      "byteLength": 10320
    },
    {
      "buffer": 0,
      "byteOffset": 198120,
      "byteLength": 22692
    },
    {
      "buffer": 0,
      "byteOffset": 220812,
      "byteLength": 22692
    },
    {
      "buffer": 0,
      "byteOffset": 243504,
      "byteLength": 30256
    },
    {
      "buffer": 0,
      "byteOffset": 273760,
      "byteLength": 15128
    },
    {
      "buffer": 0,
      "byteOffset": 288888,
      "byteLength": 15128
    },
    {
      "buffer": 0,
      "byteOffset": 304016,
      "byteLength": 11232
    },
    {
      "buffer": 0,
      "byteOffset": 315248,
      "byteLength": 18828
    },
    {
      "buffer": 0,
      "byteOffset": 334076,
      "byteLength": 18828
    },
    {
      "buffer": 0,
      "byteOffset": 352904,
      "byteLength": 25104
    },
    {
      "buffer": 0,
      "byteOffset": 378008,
      "byteLength": 12552
    },
    {
      "buffer": 0,
      "byteOffset": 390560,
      "byteLength": 12552
    },
    {
      "buffer": 0,
      "byteOffset": 403112,
      "byteLength": 9264
    },
    {
      "buffer": 0,
      "byteOffset": 412376,
      "byteLength": 16848
    },
    {
      "buffer": 0,
      "byteOffset": 429224,
      "byteLength": 16848
    },
    {
      "buffer": 0,
      "byteOffset": 446072,
      "byteLength": 22464
    },
    {
      "buffer": 0,
      "byteOffset": 468536,
      "byteLength": 11232
    },
    {
      "buffer": 0,
      "byteOffset": 479768,
      "byteLength": 11232
    },
    {
      "buffer": 0,
      "byteOffset": 491000,
      "byteLength": 8352
    },
    {
      "buffer": 0,
      "byteOffset": 499352,
      "byteLength": 9936
    },
    {
      "buffer": 0,
      "byteOffset": 509288,
      "byteLength": 9936
    },
    {
      "buffer": 0,
      "byteOffset": 519224,
      "byteLength": 13248
    },
    {
      "buffer": 0,
      "byteOffset": 532472,
      "byteLength": 6624
    },
    {
      "buffer": 0,
      "byteOffset": 539096,
      "byteLength": 6624
    },
    {
      "buffer": 0,
      "byteOffset": 545720,
      "byteLength": 4920
    },
    {
      "buffer": 0,
      "byteOffset": 550640,
      "byteLength": 41328
    },
    {
      "buffer": 0,
      "byteOffset": 591968,
      "byteLength": 41328
    },
    {
      "buffer": 0,
      "byteOffset": 633296,
      "byteLength": 55104
    },
    {
      "buffer": 0,
      "byteOffset": 688400,
      "byteLength": 27552
    },
    {
      "buffer": 0,
      "byteOffset": 715952,
      "byteLength": 27552
    },
    {
      "buffer": 0,
      "byteOffset": 743504,
      "byteLength": 20040
    }
  ],
  "images": [
    {
      "uri": "Color Pallet.jpg",
      "name": "Color Pallet"
    }
  ],
  "materials": [
    {
      "pbrMetallicRoughness": {
        "baseColorTexture": {
          "index": 0
        },
        "metallicFactor": 0.074000000953674316,
        "roughnessFactor": 0.67800000309944153
      },
      "name": "Color Pallet"
    }
  ],
  "meshes": [
    {
      "primitives": [
        {
          "attributes": {
            "POSITION": 0,
            "NORMAL": 1,
            "TANGENT": 2,
            "TEXCOORD_0": 3,
            "TEXCOORD_1": 4
          },
          "indices": 5,
          "material": 0
        }
      ],
      "name": "Big Rock 1"
    },
    {
      "primitives": [
        {
          "attributes": {
            "POSITION": 6,
            "NORMAL": 7,
            "TANGENT": 8,
            "TEXCOORD_0": 9,
            "TEXCOORD_1": 10
          },
          "indices": 11,
          "material": 0
        }
      ],
      "name": "Big Rock 5"
    },
    {
      "primitives": [
        {
          "attributes": {
            "POSITION": 12,
            "NORMAL": 13,
            "TANGENT": 14,
            "TEXCOORD_0": 15,
            "TEXCOORD_1": 16
          },
          "indices": 17,
          "material": 0
        }
      ],
      "name": "Big Rock 4"
    },
    {
      "primitives": [
        {
          "attributes": {
            "POSITION": 18,
            "NORMAL": 19,
            "TANGENT": 20,
            "TEXCOORD_0": 21,
            "TEXCOORD_1": 22
          },
          "indices": 23,
          "material": 0
        }
      ],
      "name": "Big Rock 3"
    },
    {
      "primitives": [
        {
          "attributes": {
            "POSITION": 24,
            "NORMAL": 25,
            "TANGENT": 26,
            "TEXCOORD_0": 27,
            "TEXCOORD_1": 28
          },
          "indices": 29,
          "material": 0
        }
      ],
      "name": "Big Rock 2"
    },
    {
      "primitives": [
        {
          "attributes": {
            "POSITION": 30,
            "NORMAL": 31,
            "TANGENT": 32,
            "TEXCOORD_0": 33,
            "TEXCOORD_1": 34
          },
          "indices": 35,
          "material": 0
        }
      ],
      "name": "Rock 4"
    },
    {
      "primitives": [
        {
          "attributes": {
            "POSITION": 36,
            "NORMAL": 37,
            "TANGENT": 38,
            "TEXCOORD_0": 39,
            "TEXCOORD_1": 40
          },
          "indices": 41,
          "material": 0
        }
      ],
      "name": "Mountain"
    }
  ],
  "nodes": [
    {
      "children": [
        1,
        2,
        3,
        4,
        5,
        6,
        7,
        8,
        9,
        10,
        11,
        12,
        13,
        14,
        15,
        16,
        17,
        18
      ],
      "rotation": [
        0.0,
        0.0,
        0.0,
        -1.0
      ],
      "scale": [
        0.00934478547,
        0.00934478547,
        0.00934478547
      ],
      "translation": [
        -0.452000022,
        -0.0135999406,
        -0.2028
      ],
      "name": "rocks"
    },
    {
      "mesh": 0,
      "rotation": [
        0.0,
        0.0,
        0.0,
        -1.0
      ],
      "translation": [
        12.1137094,
        4.62289953,
        47.7699661
      ],
      "name": "Big Rock 1"
    },
    {
      "mesh": 0,
      "rotation": [
        0.0,
        0.0,
        0.0,
        -1.0
      ],
      "scale": [
        1.4792,
        1.4792,
        1.4792
      ],
      "translation": [
        76.785,
        2.2,
        12.249
      ],
      "name": "Big Rock 1 (1)"
    },
    {
      "mesh": 0,
      "rotation": [
        0.0,
        0.0,
        0.0,
        -1.0
      ],
      "name": "Big Rock 1 (2)"
    },
    {
      "mesh": 0,
      "rotation": [
        0.0,
        0.0,
        0.0,
        -1.0
      ],
      "scale": [
        1.28413868,
        1.28413868,
        1.28413868
      ],
      "translation": [
        88.30594,
        2.782301,
        12.2010345
      ],
      "name": "Big Rock 1 (3)"
    },
    {
      "mesh": 0,
      "rotation": [
        0.0,
        0.0,
        0.0,
        -1.0
      ],
      "translation": [
        72.59664,
        0.0,
        12.2010345
      ],
      "name": "Big Rock 1 (4)"
    },
    {
      "mesh": 0,
      "rotation": [
        0.0,
        0.239191651,
        0.0,
        -0.9709724
      ],
      "translation": [
        17.1646538,
        0.0,
        23.4569378
      ],
      "name": "Big Rock 1 (5)"
    },
    {
      "mesh": 1,
      "rotation": [
        0.0,
        0.0,
        0.0,
        -1.0
      ],
      "scale": [
        1.28413868,
        1.28413868,
        1.28413868
      ],
      "translation": [
        25.7683849,
        1.45535719,
        -9.117383
      ],
      "name": "Big Rock 5"
    },
    {
      "mesh": 2,
      "rotation": [
        0.0,
        0.0,
        0.0,
        -1.0
      ],
      "scale": [
        1.28413868,
        1.28413868,
        1.28413868
      ],
      "translation": [
        82.57012,
        1.45535719,
        -10.2303057
      ],
      "name": "Big Rock 4"
    },
    {
      "mesh": 3,
      "rotation": [
        0.0,
        0.0,
        0.0,
        -1.0
      ],
      "scale": [
        1.28413868,
        1.28413868,
        1.28413868
      ],
      "translation": [
        9.074581,
        1.45535719,
        43.0186539
      ],
      "name": "Big Rock 3"
    },
    {
      "mesh": 4,
      "rotation": [
        0.0,
        0.0,
        0.0,
        -1.0
      ],
      "scale": [
        1.28413868,
        1.28413868,
        1.28413868
      ],
      "translation": [
        4.1520505,
        1.45535719,
        -1.62657428
      ],
      "name": "Big Rock 2"
    },
    {
      "mesh": 1,
      "rotation": [
        0.0,
        0.6278526,
        0.0,
        -0.778332233
      ],
      "scale": [
        1.28413868,
        1.28413868,
        1.28413868
      ],
      "translation": [
        16.9611988,
        1.45535743,
        -9.05213451
      ],
      "name": "Big Rock 5 (1)"
    },
    {
      "mesh": 2,
      "rotation": [
        0.0,
        0.0,
        0.0,
        -1.0
      ],
      "scale": [
        1.28413868,
        1.28413868,
        1.28413868
      ],
      "translation": [
        11.7284689,
        1.45535719,
        68.31618
      ],
      "name": "Big Rock 4 (1)"
    },
    {
      "mesh": 3,
      "rotation": [
        0.0,
        0.3724492,
        0.0,
        -0.9280526
      ],
      "scale": [
        1.28413868,
        1.28413868,
        1.28413868
      ],
      "translation": [
        8.605906,
        1.45535743,
        29.9560661
      ],
      "name": "Big Rock 3 (1)"
    },
    {
      "mesh": 4,
      "rotation": [
        0.0,
        0.0,
        0.0,
        -1.0
      ],
      "scale": [
        1.28413868,
        1.28413868,
        1.28413868
      ],
      "translation": [
        10.2303066,
        1.45535719,
        22.7720661
      ],
      "name": "Big Rock 2 (1)"
    },
    {
      "mesh": 2,
      "rotation": [
        0.0,
        0.492714763,
        0.0,
        -0.8701909
      ],
      "scale": [
        1.28413856,
        1.28413868,
        1.28413856
      ],
      "translation": [
        85.4380341,
        1.45535719,
        15.0672283
      ],
      "name": "Big Rock 4 (2)"
    },
    {
      "mesh": 5,
      "rotation": [
        0.0,
        0.808437169,
        0.0,
        -0.588582456
      ],
      "scale": [
        5.77457047,
        5.77457047,
        5.77457047
      ],
      "translation": [
        0.7,
        0.3,
        6.3
      ],
      "name": "Rock 4"
    },
    {
      "mesh": 6,
      "rotation": [
        0.0,
        0.0,
        0.0,
        -1.0
      ],
      "scale": [
        0.428046227,
        0.428046227,
        0.428046227
      ],
      "translation": [
        7.61922359,
        1.45535719,
        -13.312233
      ],
      "name": "Mountain"
    },
    {
      "mesh": 6,
      "rotation": [
        0.0,
        0.34798792,
        0.0,
        -0.937499046
      ],
      "scale": [
        0.428046316,
        0.247226655,
        0.428046316
      ],
      "translation": [
        74.18042,
        3.72400212,
        -5.008142
      ],
      "name": "Mountain (4)"
    }
  ],
  "samplers": [
    {
      "minFilter": 9729
    }
  ],
  "scene": 0,
  "scenes": [
    {
      "nodes": [
        0
      ],
      "name": "rocks"
    }
  ],
  "textures": [
    {
      "sampler": 0,
      "source": 0,
      "name": "Color Pallet"
    }
  ]
}