{
  "accessors": [
    {
      "bufferView": 0,
      "componentType": 5126,
      "count": 11888,
      "type": "VEC3",
      "max": [
        0.059999998658895493,
        0.048000000417232513,
        0.059999998658895493
      ],
      "min": [
        -0.059999998658895493,
        0.0,
        -0.059999998658895493
      ]
    },
    {
      "bufferView": 1,
      "componentType": 5126,
      "count": 11888,
      "type": "VEC3",
      "max": [
        1.0,
        1.0,
        1.0
      ],
      "min": [
        -1.0,
        -1.0,
        -1.0
      ]
    },
    {
      "bufferView": 2,
      "componentType": 5126,
      "count": 11888,
      "type": "VEC4",
      "max": [
        1.0,
        0.89442718029022217,
        1.0,
        1.0
      ],
      "min": [
        -1.0,
        -1.0,
        -1.0,
        -1.0
      ]
    },
    {
      "bufferView": 3,
      "componentType": 5126,
      "count": 11888,
      "type": "VEC2",
      "max": [
        0.99853515625,
        0.99853515625
      ],
      "min": [
        0.0,
        0.0
      ]
    },
    {
      "bufferView": 4,
      "componentType": 5125,
      "count": 48576,
      "type": "SCALAR",
      "max": [
        11887.0
      ],
      "min": [
        0.0
      ]
    }
  ],
  "asset": {
    "generator": "Plattar UnityGLTF (2020.3.19f1)",
    "version": "2.0"
  },
  "buffers": [
    {
      "uri": "3dmodel.bin",
      "byteLength": 764928
    }
  ],
  "bufferViews": [
    {
      "buffer": 0,
      "byteLength": 142656
    },
    {
      "buffer": 0,
      "byteOffset": 142656,
      "byteLength": 142656
    },
    {
      "buffer": 0,
      "byteOffset": 285312,
      "byteLength": 190208
    },
    {
      "buffer": 0,
      "byteOffset": 475520,
      "byteLength": 95104
    },
    {
      "buffer": 0,
      "byteOffset": 570624,
      "byteLength": 194304
    }
  ],
  "materials": [
    {
      "pbrMetallicRoughness": {
        "metallicFactor": 0.0
      },
      "name": "White"
    }
  ],
  "meshes": [
    {
      "primitives": [
        {
          "attributes": {
            "POSITION": 0,
            "NORMAL": 1,
            "TANGENT": 2,
            "TEXCOORD_0": 3
          },
          "indices": 4,
          "material": 0
        }
      ],
      "name": "default"
    }
  ],
  "nodes": [
    {
      "children": [
        1
      ],
      "rotation": [
        0.0,
        0.0,
        0.0,
        -1.0
      ],
      "translation": [
        -0.04144287,
        0.049987793,
        -0.00329589844
      ],
      "name": "3dmodel"
    },
    {
      "mesh": 0,
      "rotation": [
        0.0,
        0.0,
        0.0,
        -1.0
      ],
      "name": "default"
    }
  ],
  "scene": 0,
  "scenes": [
    {
      "nodes": [
        0
      ],
      "name": "3dmodel"
    }
  ]
}