{
  "accessors": [
    {
      "bufferView": 0,
      "componentType": 5126,
      "count": 971,
      "type": "VEC3",
      "max": [
        12.5,
        2.3766512870788574,
        12.5
      ],
      "min": [
        -12.5,
        -2.0365084765217034E-06,
        -12.5
      ]
    },
    {
      "bufferView": 1,
      "componentType": 5126,
      "count": 971,
      "type": "VEC3",
      "max": [
        0.40092414617538452,
        1.0,
        0.36400008201599121
      ],
      "min": [
        -0.34676721692085266,
        0.80661320686340332,
        -0.579999566078186
      ]
    },
    {
      "bufferView": 2,
      "componentType": 5126,
      "count": 971,
      "type": "VEC4",
      "max": [
        0.049759905785322189,
        0.38578641414642334,
        -0.81170451641082764,
        -1.0
      ],
      "min": [
        -0.051503401249647141,
        -0.5840613842010498,
        -1.0,
        -1.0
      ]
    },
    {
      "bufferView": 3,
      "componentType": 5126,
      "count": 971,
      "type": "VEC2",
      "max": [
        0.63048863410949707,
        0.90620553493499756
      ],
      "min": [
        0.40963971614837646,
        0.55633240938186646
      ]
    },
    {
      "bufferView": 4,
      "componentType": 5126,
      "count": 971,
      "type": "VEC2",
      "max": [
        0.99633693695068359,
        0.99106699228286743
      ],
      "min": [
        0.00390625,
        0.00390625
      ]
    },
    {
      "bufferView": 5,
      "componentType": 5125,
      "count": 1536,
      "type": "SCALAR",
      "max": [
        970.0
      ],
      "min": [
        0.0
      ]
    },
    {
      "bufferView": 6,
      "componentType": 5126,
      "count": 935,
      "type": "VEC3",
      "max": [
        12.5,
        2.2760543823242188,
        12.5
      ],
      "min": [
        -12.5,
        -0.39023268222808838,
        -12.5
      ]
    },
    {
      "bufferView": 7,
      "componentType": 5126,
      "count": 935,
      "type": "VEC3",
      "max": [
        0.40996295213699341,
        0.99999642372131348,
        0.37977972626686096
      ],
      "min": [
        -0.5073583722114563,
        0.86087685823440552,
        -0.31400173902511597
      ]
    },
    {
      "bufferView": 8,
      "componentType": 5126,
      "count": 935,
      "type": "VEC4",
      "max": [
        0.064881712198257446,
        0.39011898636817932,
        -0.92076444625854492,
        -1.0
      ],
      "min": [
        -0.063956506550312042,
        -0.31406113505363464,
        -1.0,
        -1.0
      ]
    },
    {
      "bufferView": 9,
      "componentType": 5126,
      "count": 935,
      "type": "VEC2",
      "max": [
        0.63048863410949707,
        0.90649062395095825
      ],
      "min": [
        0.40933743119239807,
        0.55603015422821045
      ]
    },
    {
      "bufferView": 10,
      "componentType": 5126,
      "count": 935,
      "type": "VEC2",
      "max": [
        0.99629586935043335,
        0.992182731628418
      ],
      "min": [
        0.00390625,
        0.00390625
      ]
    },
    {
      "bufferView": 11,
      "componentType": 5125,
      "count": 1536,
      "type": "SCALAR",
      "max": [
        934.0
      ],
      "min": [
        0.0
      ]
    },
    {
      "bufferView": 12,
      "componentType": 5126,
      "count": 966,
      "type": "VEC3",
      "max": [
        12.5,
        3.1201720237731934,
        12.5
      ],
      "min": [
        -12.5,
        -0.5363088846206665,
        -12.5
      ]
    },
    {
      "bufferView": 13,
      "componentType": 5126,
      "count": 966,
      "type": "VEC3",
      "max": [
        0.91639137268066406,
        0.999997615814209,
        0.81672269105911255
      ],
      "min": [
        -0.42798346281051636,
        -0.65843451023101807,
        -0.7214927077293396
      ]
    },
    {
      "bufferView": 14,
      "componentType": 5126,
      "count": 966,
      "type": "VEC4",
      "max": [
        0.85125887393951416,
        0.46599337458610535,
        -0.43489336967468262,
        -1.0
      ],
      "min": [
        -0.80048626661300659,
        -0.48896050453186035,
        -1.0,
        -1.0
      ]
    },
    {
      "bufferView": 15,
      "componentType": 5126,
      "count": 966,
      "type": "VEC2",
      "max": [
        0.82936066389083862,
        0.90649062395095825
      ],
      "min": [
        0.40933743119239807,
        0.55603009462356567
      ]
    },
    {
      "bufferView": 16,
      "componentType": 5126,
      "count": 966,
      "type": "VEC2",
      "max": [
        0.97982221841812134,
        0.99474364519119263
      ],
      "min": [
        0.00390625,
        0.00390625
      ]
    },
    {
      "bufferView": 17,
      "componentType": 5125,
      "count": 1536,
      "type": "SCALAR",
      "max": [
        965.0
      ],
      "min": [
        0.0
      ]
    }
  ],
  "asset": {
    "generator": "Plattar UnityGLTF (2020.3.19f1)",
    "version": "2.0"
  },
  "buffers": [
    {
      "uri": "terrain.bin",
      "byteLength": 179264
    }
  ],
  "bufferViews": [
    {
      "buffer": 0,
      "byteLength": 11652
    },
    {
      "buffer": 0,
      "byteOffset": 11652,
      "byteLength": 11652
    },
    {
      "buffer": 0,
      "byteOffset": 23304,
      "byteLength": 15536
    },
    {
      "buffer": 0,
      "byteOffset": 38840,
      "byteLength": 7768
    },
    {
      "buffer": 0,
      "byteOffset": 46608,
      "byteLength": 7768
    },
    {
      "buffer": 0,
      "byteOffset": 54376,
      "byteLength": 6144
    },
    {
      "buffer": 0,
      "byteOffset": 60520,
      "byteLength": 11220
    },
    {
      "buffer": 0,
      "byteOffset": 71740,
      "byteLength": 11220
    },
    {
      "buffer": 0,
      "byteOffset": 82960,
      "byteLength": 14960
    },
    {
      "buffer": 0,
      "byteOffset": 97920,
      "byteLength": 7480
    },
    {
      "buffer": 0,
      "byteOffset": 105400,
      "byteLength": 7480
    },
    {
      "buffer": 0,
      "byteOffset": 112880,
      "byteLength": 6144
    },
    {
      "buffer": 0,
      "byteOffset": 119024,
      "byteLength": 11592
    },
    {
      "buffer": 0,
      "byteOffset": 130616,
      "byteLength": 11592
    },
    {
      "buffer": 0,
      "byteOffset": 142208,
      "byteLength": 15456
    },
    {
      "buffer": 0,
      "byteOffset": 157664,
      "byteLength": 7728
    },
    {
      "buffer": 0,
      "byteOffset": 165392,
      "byteLength": 7728
    },
    {
      "buffer": 0,
      "byteOffset": 173120,
      "byteLength": 6144
    }
  ],
  "images": [
    {
      "uri": "Color Pallet.jpg",
      "name": "Color Pallet"
    }
  ],
  "materials": [
    {
      "pbrMetallicRoughness": {
        "baseColorTexture": {
          "index": 0
        },
        "metallicFactor": 0.074000000953674316,
        "roughnessFactor": 0.67800000309944153
      },
      "name": "Color Pallet"
    }
  ],
  "meshes": [
    {
      "primitives": [
        {
          "attributes": {
            "POSITION": 0,
            "NORMAL": 1,
            "TANGENT": 2,
            "TEXCOORD_0": 3,
            "TEXCOORD_1": 4
          },
          "indices": 5,
          "material": 0
        }
      ],
      "name": "Terrain 5 (1)"
    },
    {
      "primitives": [
        {
          "attributes": {
            "POSITION": 6,
            "NORMAL": 7,
            "TANGENT": 8,
            "TEXCOORD_0": 9,
            "TEXCOORD_1": 10
          },
          "indices": 11,
          "material": 0
        }
      ],
      "name": "Terrain 3"
    },
    {
      "primitives": [
        {
          "attributes": {
            "POSITION": 12,
            "NORMAL": 13,
            "TANGENT": 14,
            "TEXCOORD_0": 15,
            "TEXCOORD_1": 16
          },
          "indices": 17,
          "material": 0
        }
      ],
      "name": "Terrain 2"
    }
  ],
  "nodes": [
    {
      "children": [
        1,
        2,
        3,
        4
      ],
      "rotation": [
        0.0,
        0.0,
        0.0,
        -1.0
      ],
      "scale": [
        0.04,
        0.04,
        0.04
      ],
      "translation": [
        -0.262,
        5.96046448E-08,
        -0.218
      ],
      "name": "terrain"
    },
    {
      "mesh": 0,
      "rotation": [
        0.0,
        0.0,
        0.0,
        -1.0
      ],
      "scale": [
        0.5,
        0.5,
        0.5
      ],
      "name": "Terrain 5 (1)"
    },
    {
      "mesh": 1,
      "rotation": [
        0.0,
        0.0,
        0.0,
        -1.0
      ],
      "scale": [
        0.5,
        0.5,
        0.5
      ],
      "translation": [
        0.0,
        0.0,
        12.0
      ],
      "name": "Terrain 3"
    },
    {
      "mesh": 2,
      "rotation": [
        0.0,
        0.0,
        0.0,
        -1.0
      ],
      "scale": [
        0.5,
        0.5,
        0.5
      ],
      "translation": [
        12.0,
        0.0,
        12.0
      ],
      "name": "Terrain 2"
    },
    {
      "mesh": 0,
      "rotation": [
        0.0,
        0.0,
        0.0,
        -1.0
      ],
      "scale": [
        0.5,
        0.5,
        0.5
      ],
      "translation": [
        12.0,
        0.0,
        0.0
      ],
      "name": "Terrain 5"
    }
  ],
  "samplers": [
    {
      "minFilter": 9729
    }
  ],
  "scene": 0,
  "scenes": [
    {
      "nodes": [
        0
      ],
      "name": "terrain"
    }
  ],
  "textures": [
    {
      "sampler": 0,
      "source": 0,
      "name": "Color Pallet"
    }
  ]
}